<svg width="61" height="61" viewBox="0 0 61 61" fill="none" xmlns="http://www.w3.org/2000/svg">
<g filter="url(#filter0_d_3090_7570)">
<rect x="8.31714" y="2.77304" width="44.3631" height="44.3631" rx="8.18452" fill="url(#paint0_linear_3090_7570)" style="" shape-rendering="crispEdges"/>
<rect x="9.70267" y="4.15956" width="41.5904" height="41.5904" rx="8.18452" fill="url(#paint1_linear_3090_7570)" style=""/>
<path d="M38.7182 12.715V18.2756C38.5836 20.5123 37.4238 22.6661 35.5807 23.9397C33.7375 25.2134 35.3011 24.0019 35.4046 24.0951C35.5082 24.1883 35.5185 24.0951 35.5807 24.1468C37.4135 25.3687 38.594 27.6261 38.7182 29.811V35.3509C40.2093 35.6098 40.23 37.5669 38.6975 37.7636H22.6888C21.1562 37.5669 21.1562 35.6098 22.668 35.3509V29.811C22.7923 27.5743 23.9521 25.4205 25.7952 24.1468C25.847 24.1158 26.0748 24.0847 25.9713 23.9915C25.8677 23.8983 25.8574 23.9915 25.7952 23.9397C23.9624 22.7179 22.7716 20.4605 22.6577 18.2756V12.7357C21.2183 12.4768 21.1148 10.644 22.5852 10.323H38.8425C40.2404 10.6854 40.1472 12.5079 38.7182 12.715ZM36.3262 12.7046H25.0393V18.2135C25.1947 20.7194 27.1724 22.6868 29.6783 22.8421C32.1842 22.9974 35.8706 21.9827 36.3262 18.2031V12.7046ZM25.0393 35.382H36.3262V29.8731C36.1605 27.3776 34.2035 25.3998 31.6872 25.2341C28.1976 25.0167 25.4846 26.0936 25.0393 29.8731V35.382Z" fill="url(#paint2_linear_3090_7570)" style=""/>
<path d="M28.343 27.4192C29.2231 27.3467 30.0205 28.6825 30.6625 29.1692C30.7867 29.1899 32.0708 27.6884 32.4746 27.5228C33.2409 27.2121 34.1107 27.7402 34.1417 28.579C34.1728 29.4177 32.8681 30.2254 32.3918 30.8571C32.3711 30.9813 33.8622 32.255 34.0175 32.6381C34.3385 33.4044 33.8311 34.326 32.982 34.3467C32.1122 34.3674 31.3356 33.0627 30.6936 32.5863C30.59 32.5656 29.4406 33.8289 29.2231 34.005C27.9909 34.9887 26.5619 33.5183 27.5871 32.2653C27.9806 31.789 28.5501 31.3748 28.9539 30.8881C28.9746 30.7639 27.4939 29.4799 27.3282 29.1071C26.9865 28.3408 27.4939 27.471 28.3223 27.4089L28.343 27.4192Z" fill="#3D1C87" style="fill:#3D1C87;fill:color(display-p3 0.2392 0.1098 0.5294);fill-opacity:1;"/>
</g>
<defs>
<filter id="filter0_d_3090_7570" x="-0.000945007" y="0.000346502" width="60.9989" height="60.9989" filterUnits="userSpaceOnUse" color-interpolation-filters="sRGB">
<feFlood flood-opacity="0" result="BackgroundImageFix"/>
<feColorMatrix in="SourceAlpha" type="matrix" values="0 0 0 0 0 0 0 0 0 0 0 0 0 0 0 0 0 0 127 0" result="hardAlpha"/>
<feOffset dy="5.45635"/>
<feGaussianBlur stdDeviation="4.09226"/>
<feComposite in2="hardAlpha" operator="out"/>
<feColorMatrix type="matrix" values="0 0 0 0 0.133333 0 0 0 0 0.145098 0 0 0 0 0.164706 0 0 0 0.12 0"/>
<feBlend mode="normal" in2="BackgroundImageFix" result="effect1_dropShadow_3090_7570"/>
<feBlend mode="normal" in="SourceGraphic" in2="effect1_dropShadow_3090_7570" result="shape"/>
</filter>
<linearGradient id="paint0_linear_3090_7570" x1="30.4987" y1="2.77304" x2="30.4987" y2="47.1362" gradientUnits="userSpaceOnUse">
<stop stop-color="white" style="stop-color:white;stop-opacity:1;"/>
<stop offset="1" stop-color="#C7CAD1" style="stop-color:#C7CAD1;stop-color:color(display-p3 0.7804 0.7922 0.8196);stop-opacity:1;"/>
</linearGradient>
<linearGradient id="paint1_linear_3090_7570" x1="30.4979" y1="4.15956" x2="30.4979" y2="45.75" gradientUnits="userSpaceOnUse">
<stop stop-color="#F9FAFA" style="stop-color:#F9FAFA;stop-color:color(display-p3 0.9765 0.9804 0.9804);stop-opacity:1;"/>
<stop offset="1" stop-color="#EEEFF1" style="stop-color:#EEEFF1;stop-color:color(display-p3 0.9333 0.9373 0.9451);stop-opacity:1;"/>
</linearGradient>
<linearGradient id="paint2_linear_3090_7570" x1="36.2734" y1="24.1051" x2="21.529" y2="24.0612" gradientUnits="userSpaceOnUse">
<stop stop-color="#FF88AA" style="stop-color:#FF88AA;stop-color:color(display-p3 1.0000 0.5333 0.6667);stop-opacity:1;"/>
<stop offset="0.730769" stop-color="#6B4EE6" style="stop-color:#6B4EE6;stop-color:color(display-p3 0.4196 0.3059 0.9020);stop-opacity:1;"/>
</linearGradient>
</defs>
</svg>
