<svg width="14" height="14" viewBox="0 0 14 14" fill="none" xmlns="http://www.w3.org/2000/svg">
<g clip-path="url(#clip0_3090_8099)">
<path d="M7.00008 -0.000156796C6.03392 -0.000156796 5.12701 0.182137 4.27935 0.546724C3.42256 0.911312 2.67744 1.41034 2.04397 2.04381C1.4105 2.67728 0.911469 3.42241 0.546881 4.27919C0.182294 5.12685 0 6.03377 0 6.99992C0 7.96608 0.182294 8.87299 0.546881 9.72066C0.911469 10.5774 1.4105 11.3226 2.04397 11.956C2.67744 12.5895 3.42256 13.0885 4.27935 13.4531C5.12701 13.8177 6.03392 14 7.00008 14C7.96624 14 8.87315 13.8177 9.72081 13.4531C10.5776 13.0885 11.3227 12.5895 11.9562 11.956C12.5897 11.3226 13.0887 10.5774 13.4533 9.72066C13.8179 8.87299 14.0002 7.96608 14.0002 6.99992C14.0002 6.03377 13.8179 5.12685 13.4533 4.27919C13.0887 3.42241 12.5897 2.67728 11.9562 2.04381C11.3227 1.41034 10.5776 0.911312 9.72081 0.546724C8.87315 0.182137 7.96624 -0.000156796 7.00008 -0.000156796ZM6.30281 12.5508C5.61009 12.4687 4.9675 12.2637 4.37505 11.9355C3.77348 11.6165 3.25394 11.2109 2.81644 10.7187C2.37893 10.2265 2.03257 9.66141 1.77736 9.02338C1.52215 8.38535 1.39455 7.71087 1.39455 6.99992C1.39455 6.78117 1.40822 6.56697 1.43556 6.35734C1.46291 6.1477 1.49937 5.94262 1.54494 5.74209L4.89459 9.10541V9.80269C4.89459 10.1855 5.03131 10.5136 5.30475 10.7871C5.57819 11.0605 5.91087 11.1972 6.30281 11.1972V12.5508ZM11.129 10.7734C11.0379 10.4908 10.8715 10.2584 10.63 10.0761C10.3885 9.89383 10.1127 9.80269 9.80285 9.80269H9.10557V7.69719C9.10557 7.50579 9.03721 7.34172 8.90049 7.205C8.76377 7.06828 8.59515 6.99992 8.39463 6.99992H4.19731V5.60538H5.60553C5.79694 5.60538 5.961 5.53701 6.09773 5.40029C6.23445 5.26357 6.30281 5.09495 6.30281 4.89443V3.49988H7.69735C8.08928 3.49988 8.42197 3.36316 8.69541 3.08972C8.96885 2.81628 9.10557 2.48815 9.10557 2.10534V1.80455C9.61599 2.01419 10.0854 2.29219 10.5138 2.63854C10.9422 2.9849 11.3113 3.38367 11.6212 3.83485C11.9311 4.28602 12.1727 4.7805 12.3458 5.31826C12.519 5.84691 12.6056 6.40747 12.6056 6.99992C12.6056 7.7291 12.4734 8.41726 12.2091 9.0644C11.9448 9.71154 11.5848 10.2812 11.129 10.7734Z" fill="#1A1A1A" style="fill:#1A1A1A;fill:color(display-p3 0.1020 0.1020 0.1020);fill-opacity:1;"/>
</g>
<defs>
<clipPath id="clip0_3090_8099">
<rect width="13.965" height="13.965" fill="white" style="fill:white;fill-opacity:1;" transform="matrix(1.00252 0 0 -1.00252 0 14)"/>
</clipPath>
</defs>
</svg>
