<svg width="16" height="16" viewBox="0 0 16 16" fill="none" xmlns="http://www.w3.org/2000/svg">
<g clip-path="url(#clip0_3090_8105)">
<path d="M3.9599 14.6643C3.78619 14.8354 3.58046 14.9706 3.35448 15.0622C3.1285 15.1537 2.88669 15.1999 2.64287 15.1979C2.39905 15.196 2.158 15.1461 1.9335 15.0509C1.70899 14.9558 1.50543 14.8174 1.33445 14.6435C1.16335 14.4698 1.02816 14.2641 0.936602 14.0381C0.845042 13.8121 0.79891 13.5703 0.800841 13.3265C0.802773 13.0827 0.85273 12.8416 0.947859 12.6171C1.04299 12.3926 1.18142 12.1891 1.35525 12.0181L6.78213 6.54641C6.54703 5.87458 6.48157 5.15507 6.59159 4.45185C6.70161 3.74863 6.98369 3.08349 7.41276 2.51557C7.84182 1.94766 8.40457 1.49457 9.05097 1.19658C9.69737 0.898597 10.4074 0.764957 11.1179 0.807544C11.2388 0.813573 11.3554 0.854564 11.4535 0.925543C11.5515 0.996522 11.6269 1.09444 11.6705 1.20741C11.714 1.32039 11.7238 1.44357 11.6987 1.56202C11.6736 1.68046 11.6147 1.78907 11.5291 1.87468L10.4555 2.93062C10.1044 3.27623 9.90494 3.74717 9.90104 4.23983C9.89714 4.7325 10.0891 5.20654 10.4347 5.55766C10.7803 5.90879 11.2513 6.10824 11.7439 6.11214C12.2366 6.11604 12.7106 5.92407 13.0618 5.57846L14.1337 4.52253C14.2204 4.43839 14.3296 4.38116 14.4481 4.35774C14.5666 4.33432 14.6894 4.34572 14.8016 4.39055C14.9137 4.43539 15.0105 4.51175 15.0802 4.6104C15.15 4.70906 15.1896 4.82579 15.1944 4.9465C15.2252 5.65681 15.0801 6.36371 14.7721 7.00451C14.4641 7.6453 14.0027 8.20017 13.4289 8.61988C12.855 9.03959 12.1864 9.31118 11.4824 9.41053C10.7784 9.50989 10.0608 9.43395 9.39318 9.18945L3.9599 14.6643Z" stroke="#1A1A1A" style="stroke:#1A1A1A;stroke:color(display-p3 0.1020 0.1020 0.1020);stroke-opacity:1;" stroke-width="1.2768" stroke-linecap="round" stroke-linejoin="round"/>
</g>
<defs>
<clipPath id="clip0_3090_8105">
<rect width="15.96" height="15.96" fill="white" style="fill:white;fill-opacity:1;" transform="scale(1.00245)"/>
</clipPath>
</defs>
</svg>
