<svg width="16" height="16" viewBox="0 0 16 16" fill="none" xmlns="http://www.w3.org/2000/svg">
<path d="M10.6838 13.7136L10.684 11.5711C10.6841 10.3877 9.72481 9.42832 8.5414 9.42832H3.74345C2.56021 9.42832 1.60097 10.3875 1.60083 11.5707L1.60059 13.7136M14.3999 13.7137L14.4001 11.5712C14.4002 10.3878 13.4408 9.42844 12.2574 9.42844M10.2711 2.7072C10.7973 3.09761 11.1383 3.72349 11.1383 4.42901C11.1383 5.13453 10.7973 5.76041 10.2711 6.15082M8.32951 4.42889C8.32951 5.61223 7.37023 6.57151 6.18689 6.57151C5.00356 6.57151 4.04428 5.61223 4.04428 4.42889C4.04428 3.24556 5.00356 2.28628 6.18689 2.28628C7.37023 2.28628 8.32951 3.24556 8.32951 4.42889Z" stroke="#8B91A3" style="stroke:#8B91A3;stroke:color(display-p3 0.5451 0.5686 0.6392);stroke-opacity:1;" stroke-width="1.31782" stroke-linecap="round" stroke-linejoin="round"/>
</svg>
