<svg width="5" height="5" viewBox="0 0 5 5" fill="none" xmlns="http://www.w3.org/2000/svg">
<path d="M3.61469 1.01514C4.49148 0.89516 5.25752 1.60582 4.91603 2.49184C4.57454 3.37786 4.32535 3.05483 4.30689 3.12867C4.2792 3.23942 4.41765 3.47015 4.4361 3.59014C4.50071 4.00546 4.29766 4.47615 3.92849 4.68843C3.55931 4.9007 3.22706 4.87302 2.83942 4.68843C2.45179 4.50384 2.59023 4.46692 2.5164 4.4577C2.44256 4.44847 1.94417 4.84533 1.63961 4.86379C0.99355 4.90071 0.467476 4.22696 0.568999 3.59936C0.670522 2.97177 0.735128 3.24865 0.69821 3.1379C0.661293 3.02714 0.125989 2.78718 0.0336957 2.37186C-0.16935 1.51353 0.578228 0.913619 1.39041 1.02437C1.60269 0.304481 1.9534 -0.0923822 2.75636 0.0183702C3.55931 0.129123 3.48548 0.59982 3.62392 1.02437L3.61469 1.01514Z" fill="#3D1C87" style="fill:#3D1C87;fill:color(display-p3 0.2392 0.1098 0.5294);fill-opacity:1;"/>
</svg>
