<svg width="20" height="20" viewBox="0 0 20 20" fill="none" xmlns="http://www.w3.org/2000/svg">
<g clip-path="url(#clip0_3090_7993)">
<g clip-path="url(#clip1_3090_7993)">
<path d="M13.991 7.4362V5.01742C13.991 4.49629 13.784 3.99652 13.4155 3.62803C13.047 3.25954 12.5472 3.05252 12.0261 3.05252H2.80683C2.28571 3.05252 1.78593 3.25954 1.41744 3.62803C1.04896 3.99652 0.84194 4.49629 0.84194 5.01742V14.8419C0.84194 15.363 1.04896 15.8628 1.41744 16.2313C1.78593 16.5998 2.28571 16.8068 2.80683 16.8068H12.0261C12.5472 16.8068 13.047 16.5998 13.4155 16.2313C13.784 15.8628 13.991 15.363 13.991 14.8419V12.4231L17.0818 14.0716C17.2314 14.1513 17.3992 14.1909 17.5686 14.1866C17.7381 14.1823 17.9036 14.1341 18.049 14.0469C18.1944 13.9597 18.3147 13.8363 18.3983 13.6888C18.4819 13.5413 18.5259 13.3747 18.526 13.2051V6.65417C18.5259 6.48463 18.4819 6.318 18.3983 6.17049C18.3147 6.02298 18.1944 5.89962 18.049 5.81239C17.9036 5.72516 17.7381 5.67704 17.5686 5.6727C17.3992 5.66837 17.2314 5.70797 17.0818 5.78765L13.991 7.4362Z" stroke="#767676" style="stroke:#767676;stroke:color(display-p3 0.4627 0.4627 0.4627);stroke-opacity:1;" stroke-width="1.995" stroke-linecap="round" stroke-linejoin="round"/>
</g>
</g>
<defs>
<clipPath id="clip0_3090_7993">
<rect width="19.95" height="19.95" fill="white" style="fill:white;fill-opacity:1;" transform="scale(1.0025)"/>
</clipPath>
<clipPath id="clip1_3090_7993">
<rect width="19.6" height="19.6" fill="white" style="fill:white;fill-opacity:1;" transform="translate(-0.140976 0.104753) scale(1.0025)"/>
</clipPath>
</defs>
</svg>
