<svg width="61" height="61" viewBox="0 0 61 61" fill="none" xmlns="http://www.w3.org/2000/svg">
<g filter="url(#filter0_d_3090_7506)">
<rect x="8.31714" y="2.77304" width="44.3631" height="44.3631" rx="8.18452" fill="url(#paint0_linear_3090_7506)" style="" shape-rendering="crispEdges"/>
<rect x="9.70267" y="4.15956" width="41.5904" height="41.5904" rx="8.18452" fill="url(#paint1_linear_3090_7506)" style=""/>
<path d="M33.4744 13.8482C34.158 14.5319 34.1105 16.0131 34.253 16.9341C34.3954 17.8551 34.3764 17.4374 34.3954 17.4563C35.117 17.7507 35.7627 18.178 36.4083 18.6147L38.6966 17.6747C39.3518 17.3899 40.1399 17.4943 40.6621 17.9881C41.1843 18.4818 42.1148 20.2764 42.3807 20.8271C42.6466 21.3778 42.675 21.6626 42.5991 22.2039C42.4567 23.2103 40.6051 24.0744 39.9595 24.7865C39.9974 25.5651 40.0164 26.3342 39.95 27.1033V27.1603C40.2918 27.3691 40.5861 27.6445 40.89 27.8819C41.868 28.651 42.8175 29.0118 42.5991 30.5025C42.5421 30.8823 41.2793 33.0187 40.9849 33.446C40.5861 34.0251 40.1589 34.3005 39.4467 34.3765C38.3643 34.1771 37.3958 33.5789 36.3419 33.2655C35.7437 33.7403 35.0505 34.0821 34.3669 34.4239C34.3669 34.5948 34.2815 34.7563 34.253 34.9272C34.0631 36.1046 34.196 38.2979 32.5629 38.4593C31.4329 38.5733 30.1131 38.3834 28.9642 38.4498C28.461 38.3834 27.9673 37.9276 27.7584 37.4718C27.5495 37.0161 27.464 35.7722 27.3596 35.1171C27.2551 34.4619 27.2741 34.6233 27.2077 34.386C26.505 34.1201 25.8499 33.7118 25.2422 33.2466C24.4541 33.4934 23.7135 33.9302 22.9254 34.1866C21.9949 34.4999 21.1973 34.3195 20.6276 33.4839C20.0579 32.6484 19.5357 31.6894 19.1844 30.9867C18.871 30.3506 18.871 29.7239 19.2224 29.1067C19.925 28.3376 20.846 27.7774 21.6436 27.1128C21.6246 26.4766 21.6056 25.831 21.6151 25.1853C21.6246 24.5396 21.748 24.8245 21.5961 24.6915C20.4282 23.6186 18.2254 22.84 19.1844 20.8651C20.1434 18.8901 20.3428 18.9091 20.903 18.0261C22.2418 16.8012 23.8464 18.2349 25.2422 18.6147C25.8594 18.1685 26.4955 17.7507 27.2077 17.4753C27.2741 17.238 27.3216 16.9911 27.3596 16.7442C27.578 15.3674 27.4166 13.5159 29.2871 13.3545C31.1576 13.1931 31.6039 13.2785 32.373 13.3545C33.142 13.4305 33.2085 13.5824 33.4744 13.8482ZM31.8697 15.5479H29.6954C29.7333 15.8707 29.6004 16.2125 29.5529 16.5163C29.4675 17.1335 29.4295 18.4343 29.0972 18.9091C28.7648 19.3838 28.3566 19.3174 27.9768 19.4978C27.597 19.6782 27.3026 19.8396 27.0273 20.02C26.4576 20.3903 25.9828 21.0929 25.2232 20.9505L22.3747 19.8301L21.3018 21.6531L21.3682 21.7671C22.0234 22.3558 22.9349 22.8685 23.5521 23.4762C24.1693 24.0839 23.9699 24.2168 23.8939 24.815C23.8179 25.4132 23.742 26.1348 23.8179 26.8184C23.8939 27.5021 23.9414 27.2267 23.9604 27.4356C23.9794 27.8439 23.8274 28.1667 23.5331 28.4326C22.8684 29.0403 21.9949 29.553 21.3208 30.1607C21.2543 30.2746 21.5012 30.6354 21.5771 30.7589C21.6531 30.8823 22.2987 32.0312 22.3747 32.0502L25.1757 30.9298C25.8974 30.7873 26.2107 31.2906 26.7139 31.6514C27.2172 32.0122 27.54 32.1736 27.9768 32.3825C28.4135 32.5914 28.8788 32.6104 29.1446 33.0187C29.4105 33.427 29.477 34.8132 29.5529 35.3639C29.6289 35.9147 29.7333 36.0096 29.6954 36.3419H31.8697C31.9267 35.9621 32.0026 35.5918 32.0596 35.2215C32.1356 34.6898 32.1641 34.0536 32.2685 33.5314C32.4679 32.5724 33.199 32.6104 33.9301 32.2496C34.1105 32.1546 34.3289 32.0312 34.4998 31.9173C35.0885 31.5469 35.6582 30.7968 36.3988 30.9393L39.2473 32.0597L40.3108 30.2271L40.2443 30.1132C39.5797 29.553 38.7726 29.0593 38.1269 28.4801C37.3388 27.7679 37.7376 27.4071 37.7946 26.5336C37.8231 26.1728 37.8231 25.6031 37.7946 25.2518C37.7471 24.6915 37.4528 24.2358 37.8421 23.6851C38.6112 22.9635 39.5037 22.3748 40.3013 21.6816L39.2378 19.8111L36.3893 20.941C35.6487 21.0834 35.1835 20.3903 34.6138 20.0295C34.0441 19.6687 34.3479 19.8776 34.2245 19.8016C33.4744 19.3838 32.4679 19.3174 32.2685 18.3869C32.0691 17.4563 32.1356 17.2 32.0501 16.6588C31.9647 16.1176 31.9172 15.9182 31.8602 15.5479H31.8697Z" fill="url(#paint2_linear_3090_7506)" style=""/>
<path d="M33.8542 23.0115C35.6773 24.9105 35.288 28.0344 33.1041 29.4681C29.496 31.8324 25.0808 27.8445 27.0558 23.9895C28.3566 21.4354 31.8603 20.9416 33.8542 23.0115ZM30.5879 23.9136C28.0623 24.1319 28.2237 28.0819 30.9013 27.9774C33.5599 27.873 33.427 23.6667 30.5879 23.9136Z" fill="#3D1C87" style="fill:#3D1C87;fill:color(display-p3 0.2392 0.1098 0.5294);fill-opacity:1;"/>
</g>
<defs>
<filter id="filter0_d_3090_7506" x="-0.000945007" y="0.000346502" width="60.9989" height="60.9989" filterUnits="userSpaceOnUse" color-interpolation-filters="sRGB">
<feFlood flood-opacity="0" result="BackgroundImageFix"/>
<feColorMatrix in="SourceAlpha" type="matrix" values="0 0 0 0 0 0 0 0 0 0 0 0 0 0 0 0 0 0 127 0" result="hardAlpha"/>
<feOffset dy="5.45635"/>
<feGaussianBlur stdDeviation="4.09226"/>
<feComposite in2="hardAlpha" operator="out"/>
<feColorMatrix type="matrix" values="0 0 0 0 0.133333 0 0 0 0 0.145098 0 0 0 0 0.164706 0 0 0 0.12 0"/>
<feBlend mode="normal" in2="BackgroundImageFix" result="effect1_dropShadow_3090_7506"/>
<feBlend mode="normal" in="SourceGraphic" in2="effect1_dropShadow_3090_7506" result="shape"/>
</filter>
<linearGradient id="paint0_linear_3090_7506" x1="30.4987" y1="2.77304" x2="30.4987" y2="47.1362" gradientUnits="userSpaceOnUse">
<stop stop-color="white" style="stop-color:white;stop-opacity:1;"/>
<stop offset="1" stop-color="#C7CAD1" style="stop-color:#C7CAD1;stop-color:color(display-p3 0.7804 0.7922 0.8196);stop-opacity:1;"/>
</linearGradient>
<linearGradient id="paint1_linear_3090_7506" x1="30.4979" y1="4.15956" x2="30.4979" y2="45.75" gradientUnits="userSpaceOnUse">
<stop stop-color="#F9FAFA" style="stop-color:#F9FAFA;stop-color:color(display-p3 0.9765 0.9804 0.9804);stop-opacity:1;"/>
<stop offset="1" stop-color="#EEEFF1" style="stop-color:#EEEFF1;stop-color:color(display-p3 0.9333 0.9373 0.9451);stop-opacity:1;"/>
</linearGradient>
<linearGradient id="paint2_linear_3090_7506" x1="38.0198" y1="25.9365" x2="18.9485" y2="25.8568" gradientUnits="userSpaceOnUse">
<stop stop-color="#FF88AA" style="stop-color:#FF88AA;stop-color:color(display-p3 1.0000 0.5333 0.6667);stop-opacity:1;"/>
<stop offset="0.730769" stop-color="#6B4EE6" style="stop-color:#6B4EE6;stop-color:color(display-p3 0.4196 0.3059 0.9020);stop-opacity:1;"/>
</linearGradient>
</defs>
</svg>
