<svg width="61" height="61" viewBox="0 0 61 61" fill="none" xmlns="http://www.w3.org/2000/svg">
<g filter="url(#filter0_d_3090_7513)">
<rect x="8.31714" y="2.77304" width="44.3631" height="44.3631" rx="8.18452" fill="url(#paint0_linear_3090_7513)" style="" shape-rendering="crispEdges"/>
<rect x="9.70267" y="4.15956" width="41.5904" height="41.5904" rx="8.18452" fill="url(#paint1_linear_3090_7513)" style=""/>
<path d="M24.8219 21.1689C24.9698 19.6607 26.2636 18.4704 27.757 18.3743C29.2504 18.2782 32.082 18.4778 34.189 18.3743C35.5272 18.3743 37.0871 19.816 37.0871 21.1689V26.5068H38.2109C38.3809 26.5068 38.7802 26.7581 38.8911 26.8986C39.4308 27.6083 38.9428 28.5842 38.0704 28.6138H23.7352C22.9071 28.4955 22.4931 27.5492 23.0328 26.8764C23.5725 26.2036 23.5282 26.5068 23.6908 26.5068H24.8146V21.1689H24.8219ZM34.9875 26.5142V21.3538C34.9875 20.851 34.4552 20.5109 34.0116 20.4814C32.0155 20.3409 29.8567 20.5849 27.8383 20.4814C27.4613 20.4666 26.929 20.9397 26.929 21.3094V26.4994H34.9875V26.5142Z" fill="#3D1C87" style="fill:#3D1C87;fill:color(display-p3 0.2392 0.1098 0.5294);fill-opacity:1;"/>
<path d="M20.4152 35.3634C19.5207 34.5058 19.2028 33.1825 19.6612 32.0143C20.1195 30.8462 19.9199 31.5781 19.9051 31.4968C19.0993 30.1882 18.4856 28.717 18.1751 27.194C17.8277 25.4492 17.8055 22.5142 18.4265 20.8359C19.0475 19.1577 20.5335 20.0079 20.4966 21.1982C20.4892 21.4865 20.3117 21.8858 20.2526 22.1741C19.6981 24.88 20.1269 27.8446 21.5981 30.203C23.062 29.7373 24.6885 30.4396 25.3391 31.8221C26.7659 34.8903 22.8919 37.7144 20.4152 35.356V35.3634ZM22.3375 32.177C22.0196 32.2213 21.6203 32.6058 21.576 32.9311C21.4059 34.1288 22.9141 34.5428 23.4021 33.6113C23.8013 32.8498 23.1729 32.0513 22.3375 32.177Z" fill="url(#paint2_linear_3090_7513)" style=""/>
<path d="M20.112 13.9675C20.9696 13.0729 22.2856 12.755 23.4611 13.2134C24.6366 13.6718 23.8973 13.4722 23.9786 13.4574C24.0821 13.3908 24.2004 13.3317 24.3113 13.2726C26.8397 11.8826 28.9764 11.3725 31.904 11.5056C32.5546 11.5352 34.3659 11.7865 34.8908 12.1044C35.5193 12.4889 35.5488 13.4278 34.95 13.8492C34.3511 14.2706 33.878 13.9231 33.2939 13.8049C30.5807 13.2504 27.6234 13.6792 25.265 15.1504C25.7751 16.7104 24.8953 18.5069 23.328 19.017C20.282 20.0299 17.8793 16.2963 20.112 13.9675ZM22.0786 15.1356C21.8568 15.18 21.5463 15.4535 21.4502 15.6531C21.0509 16.5329 21.9603 17.4201 22.8179 16.9469C23.6755 16.4738 23.2467 14.8916 22.0712 15.1282L22.0786 15.1356Z" fill="url(#paint3_linear_3090_7513)" style=""/>
<path d="M41.5073 13.672C42.4019 14.5296 42.7198 15.853 42.2614 17.0211C41.803 18.1892 42.0026 17.4573 42.0174 17.5386C42.084 17.6421 42.1431 17.7604 42.2022 17.8713C43.5995 20.3998 44.1023 22.5364 43.9766 25.4641C43.947 26.1147 43.6957 27.926 43.3778 28.4509C43.0007 29.0793 42.0544 29.1089 41.633 28.51C41.2337 27.9482 41.559 27.438 41.6773 26.854C42.1727 24.3773 41.8696 21.7675 40.731 19.4978C39.5925 17.2281 40.3835 18.8398 40.3318 18.825C40.1987 18.862 40.0656 18.9064 39.9252 18.9286C37.6037 19.2317 35.7333 17.2133 36.4578 14.9437C37.1454 12.7775 39.8808 12.0973 41.5147 13.672H41.5073ZM40.0435 15.1359C39.0897 14.3079 37.7368 15.7569 38.7201 16.6219C39.7256 17.5017 40.9824 15.9565 40.0435 15.1359Z" fill="url(#paint4_linear_3090_7513)" style=""/>
<path d="M41.8041 35.0671C40.9465 35.9691 39.6231 36.2722 38.455 35.8212C38.3367 35.7769 38.0188 35.5625 37.9375 35.5773C37.8561 35.592 37.6713 35.7251 37.6048 35.7621C35.0763 37.1594 32.9397 37.6621 30.012 37.5364C29.3615 37.5069 27.5501 37.2555 27.0252 36.9376C26.5003 36.6197 26.3672 35.6142 26.9661 35.1928C27.5649 34.7714 28.0381 35.1189 28.6221 35.2372C31.0988 35.7325 33.716 35.4294 35.9783 34.2909C36.0744 34.2465 36.6363 33.9434 36.6511 33.8916C36.6141 33.7586 36.5697 33.6255 36.5476 33.485C36.348 31.9694 37.1242 30.4982 38.6102 30.0176C41.6488 29.0344 44.0294 32.7457 41.8041 35.0745V35.0671ZM39.4161 31.9546C38.7433 32.0803 38.3663 32.901 38.7655 33.4702C39.4235 34.4091 40.843 33.7364 40.5103 32.6126C40.3772 32.1764 39.8671 31.8659 39.4161 31.9472V31.9546Z" fill="url(#paint5_linear_3090_7513)" style=""/>
</g>
<defs>
<filter id="filter0_d_3090_7513" x="-0.000945007" y="0.000346502" width="60.9989" height="60.9989" filterUnits="userSpaceOnUse" color-interpolation-filters="sRGB">
<feFlood flood-opacity="0" result="BackgroundImageFix"/>
<feColorMatrix in="SourceAlpha" type="matrix" values="0 0 0 0 0 0 0 0 0 0 0 0 0 0 0 0 0 0 127 0" result="hardAlpha"/>
<feOffset dy="5.45635"/>
<feGaussianBlur stdDeviation="4.09226"/>
<feComposite in2="hardAlpha" operator="out"/>
<feColorMatrix type="matrix" values="0 0 0 0 0.133333 0 0 0 0 0.145098 0 0 0 0 0.164706 0 0 0 0.12 0"/>
<feBlend mode="normal" in2="BackgroundImageFix" result="effect1_dropShadow_3090_7513"/>
<feBlend mode="normal" in="SourceGraphic" in2="effect1_dropShadow_3090_7513" result="shape"/>
</filter>
<linearGradient id="paint0_linear_3090_7513" x1="30.4987" y1="2.77304" x2="30.4987" y2="47.1362" gradientUnits="userSpaceOnUse">
<stop stop-color="white" style="stop-color:white;stop-opacity:1;"/>
<stop offset="1" stop-color="#C7CAD1" style="stop-color:#C7CAD1;stop-color:color(display-p3 0.7804 0.7922 0.8196);stop-opacity:1;"/>
</linearGradient>
<linearGradient id="paint1_linear_3090_7513" x1="30.4979" y1="4.15956" x2="30.4979" y2="45.75" gradientUnits="userSpaceOnUse">
<stop stop-color="#F9FAFA" style="stop-color:#F9FAFA;stop-color:color(display-p3 0.9765 0.9804 0.9804);stop-opacity:1;"/>
<stop offset="1" stop-color="#EEEFF1" style="stop-color:#EEEFF1;stop-color:color(display-p3 0.9333 0.9373 0.9451);stop-opacity:1;"/>
</linearGradient>
<linearGradient id="paint2_linear_3090_7513" x1="24.1429" y1="28.1003" x2="17.9323" y2="28.0872" gradientUnits="userSpaceOnUse">
<stop stop-color="#FF88AA" style="stop-color:#FF88AA;stop-color:color(display-p3 1.0000 0.5333 0.6667);stop-opacity:1;"/>
<stop offset="0.730769" stop-color="#6B4EE6" style="stop-color:#6B4EE6;stop-color:color(display-p3 0.4196 0.3059 0.9020);stop-opacity:1;"/>
</linearGradient>
<linearGradient id="paint3_linear_3090_7513" x1="32.2355" y1="15.3537" x2="19.2393" y2="15.2324" gradientUnits="userSpaceOnUse">
<stop stop-color="#FF88AA" style="stop-color:#FF88AA;stop-color:color(display-p3 1.0000 0.5333 0.6667);stop-opacity:1;"/>
<stop offset="0.730769" stop-color="#6B4EE6" style="stop-color:#6B4EE6;stop-color:color(display-p3 0.4196 0.3059 0.9020);stop-opacity:1;"/>
</linearGradient>
<linearGradient id="paint4_linear_3090_7513" x1="42.4956" y1="20.9125" x2="36.2995" y2="20.8994" gradientUnits="userSpaceOnUse">
<stop stop-color="#FF88AA" style="stop-color:#FF88AA;stop-color:color(display-p3 1.0000 0.5333 0.6667);stop-opacity:1;"/>
<stop offset="0.730769" stop-color="#6B4EE6" style="stop-color:#6B4EE6;stop-color:color(display-p3 0.4196 0.3059 0.9020);stop-opacity:1;"/>
</linearGradient>
<linearGradient id="paint5_linear_3090_7513" x1="39.5386" y1="33.7225" x2="26.5719" y2="33.6018" gradientUnits="userSpaceOnUse">
<stop stop-color="#FF88AA" style="stop-color:#FF88AA;stop-color:color(display-p3 1.0000 0.5333 0.6667);stop-opacity:1;"/>
<stop offset="0.730769" stop-color="#6B4EE6" style="stop-color:#6B4EE6;stop-color:color(display-p3 0.4196 0.3059 0.9020);stop-opacity:1;"/>
</linearGradient>
</defs>
</svg>
