<svg width="36" height="36" viewBox="0 0 36 36" fill="none" xmlns="http://www.w3.org/2000/svg">
<rect width="36" height="36" rx="11.9176" fill="#EBEBEB" fill-opacity="0.4" style="fill:#EBEBEB;fill:color(display-p3 0.9208 0.9208 0.9208);fill-opacity:0.4;"/>
<path d="M16.1454 9.24813C16.2948 8.87884 16.5511 8.56259 16.8814 8.3399C17.2117 8.11722 17.601 7.99825 17.9994 7.99825C18.3978 7.99825 18.7871 8.11722 19.1174 8.3399C19.4477 8.56259 19.704 8.87884 19.8534 9.24813C21.3322 9.65481 22.6365 10.5357 23.5662 11.7555C24.4958 12.9752 24.9993 14.4665 24.9994 16.0001V20.6971L26.8314 23.4451C26.9319 23.5957 26.9896 23.7708 26.9984 23.9516C27.0072 24.1324 26.9667 24.3123 26.8813 24.4719C26.7959 24.6315 26.6687 24.765 26.5134 24.858C26.3581 24.951 26.1804 25.0001 25.9994 25.0001H21.4644C21.344 25.8332 20.9275 26.5951 20.2911 27.1461C19.6547 27.6971 18.8412 28.0003 17.9994 28.0003C17.1576 28.0003 16.3441 27.6971 15.7077 27.1461C15.0713 26.5951 14.6548 25.8332 14.5344 25.0001H9.99941C9.81837 25.0001 9.64071 24.951 9.4854 24.858C9.33009 24.765 9.20295 24.6315 9.11754 24.4719C9.03213 24.3123 8.99166 24.1324 9.00044 23.9516C9.00922 23.7708 9.06693 23.5957 9.16741 23.4451L10.9994 20.6971V16.0001C10.9994 12.7761 13.1794 10.0601 16.1454 9.24813ZM16.5854 25.0001C16.6887 25.2928 16.8802 25.5462 17.1335 25.7254C17.3869 25.9047 17.6896 26.0009 17.9999 26.0009C18.3102 26.0009 18.6129 25.9047 18.8663 25.7254C19.1196 25.5462 19.3111 25.2928 19.4144 25.0001H16.5844H16.5854ZM17.9994 11.0001C16.6733 11.0001 15.4016 11.5269 14.4639 12.4646C13.5262 13.4023 12.9994 14.674 12.9994 16.0001V21.0001C12.9995 21.1977 12.941 21.3908 12.8314 21.5551L11.8684 23.0001H24.1294L23.1664 21.5551C23.0572 21.3907 22.9991 21.1976 22.9994 21.0001V16.0001C22.9994 14.674 22.4726 13.4023 21.5349 12.4646C20.5973 11.5269 19.3255 11.0001 17.9994 11.0001Z" fill="#3B3B3B" style="fill:#3B3B3B;fill:color(display-p3 0.2300 0.2300 0.2300);fill-opacity:1;"/>
<circle cx="22.9995" cy="12.0002" r="3.50343" fill="#845EEE" stroke="#EBEBEB" style="fill:#845EEE;fill:color(display-p3 0.5176 0.3686 0.9333);fill-opacity:1;stroke:#EBEBEB;stroke:color(display-p3 0.9208 0.9208 0.9208);stroke-opacity:1;" stroke-width="0.993137"/>
</svg>
