<svg width="595" height="23" viewBox="0 0 595 23" fill="none" xmlns="http://www.w3.org/2000/svg">
<path fill-rule="evenodd" clip-rule="evenodd" d="M1.71542 3.08693e-05H21.2846C21.7305 -0.0026499 22.1597 0.169367 22.4803 0.479245C22.8009 0.789123 22.9875 1.21223 23 1.65795V21.275C22.9899 21.7216 22.8042 22.1461 22.483 22.4565C22.1618 22.7669 21.7312 22.9381 21.2846 22.9329H1.71542C1.2688 22.9381 0.83817 22.7669 0.517006 22.4565C0.195841 22.1461 0.0100639 21.7216 0 21.275L0 1.65795C0.0125172 1.21223 0.199062 0.789123 0.519687 0.479245C0.840312 0.169367 1.26953 -0.0026499 1.71542 3.08693e-05ZM3.44042 19.5596H6.81375V8.62503H3.44042V19.5596ZM5.16542 7.10128C4.64749 7.10143 4.15004 6.89902 3.77937 6.5373C3.40869 6.17557 3.19418 5.68322 3.18167 5.16545C3.17229 4.90241 3.21718 4.64027 3.31356 4.39534C3.40993 4.15042 3.55572 3.92797 3.74183 3.74186C3.92794 3.55575 4.15039 3.40996 4.39531 3.31359C4.64023 3.21721 4.90238 3.17232 5.16542 3.1817C5.66647 3.21659 6.13564 3.44024 6.47824 3.80753C6.82084 4.17481 7.01137 4.65839 7.01137 5.16066C7.01137 5.66293 6.82084 6.1465 6.47824 6.51378C6.13564 6.88107 5.66647 7.10473 5.16542 7.13961V7.10128ZM16.2917 19.4925H19.6267V13.5029C19.6267 10.58 18.9846 8.28003 15.5442 8.28003C14.8913 8.25083 14.2429 8.40165 13.67 8.71601C13.097 9.03037 12.6215 9.49618 12.2954 10.0625H12.2283V8.62503H9.04667V19.435H12.4583V14.0204C12.4583 12.6117 12.7267 11.2125 14.5092 11.2125C16.2917 11.2125 16.2917 12.8704 16.2917 14.145V19.4925Z" fill="white" style="fill:white;fill-opacity:1;"/>
</svg>
