<svg width="8" height="7" viewBox="0 0 8 7" fill="none" xmlns="http://www.w3.org/2000/svg">
<path d="M7.51294 6.51763C7.33779 6.6689 6.97953 6.78832 6.74865 6.8122C4.97325 6.97939 2.93513 6.68482 1.13585 6.8122C0.514865 6.70074 0.0929109 6.32656 0.0371811 5.68168C0.132718 4.20882 -0.08224 2.59266 0.0371811 1.14368C0.156602 -0.305294 0.506904 0.0927758 1.12789 0.0450074C2.96698 0.156467 4.96529 -0.0982979 6.78049 0.0450074C8.59569 0.188313 7.8314 0.498807 7.87916 1.13572C7.98266 2.64042 7.79955 4.27251 7.87916 5.79314C7.85528 6.03198 7.68013 6.3584 7.50498 6.51763H7.51294ZM5.61813 2.30605H2.31414V4.49543H5.61813V2.30605Z" fill="#3D1C87" style="fill:#3D1C87;fill:color(display-p3 0.2392 0.1098 0.5294);fill-opacity:1;"/>
</svg>
